#!OML:ASF F:\VICON\USERDATA\INSTALL\rory3\rory3.ASF
:FULLY-SPECIFIED
:DEGREES
202
root 2.74483 17.2191 -2.04565 7.54345 -45.8066 5.26588
lowerback -8.32922 0.825976 -0.896242
upperback -7.32136 1.0153 0.360313
thorax -2.94616 0.496254 0.933907
lowerneck -5.87892 15.1981 8.57275
upperneck 24.5445 20.3812 -1.48437
head 9.79255 10.1035 0.35779
rclavicle 7.42461e-014 1.35174e-014
rhumerus 22.2339 -30.6977 -7.82563
rradius 127.982
rwrist -59.0509
rhand -5.68535 -44.8182
rfingers 7.12502
rthumb 20.1348 -73.7948
lclavicle 7.42461e-014 1.35174e-014
lhumerus 24.9955 5.53066 -12.257
lradius 33.405
lwrist 38.5409
lhand -21.0937 -19.8437
lfingers 7.12502
lthumb 5.2839 10.0704
rfemur -11.171 -0.438817 7.34713
rtibia 28.4303
rfoot -23.4658 -27.2819
rtoes -2.20647
lfemur -19.6745 -6.06117 -9.73296
ltibia 11.1997
lfoot 2.49639 25.0485
ltoes 1.33787
203
root 2.73612 17.2138 -2.07127 7.50058 -45.7114 5.19127
lowerback -8.34271 0.58052 -0.913019
upperback -7.33349 0.693388 0.670202
thorax -2.94882 0.34272 1.24617
lowerneck -5.19881 15.2559 7.84095
upperneck 24.2394 20.6235 -1.62019
head 9.50274 10.167 0.356346
rclavicle -7.06679e-014 -2.38542e-014
rhumerus 23.2224 -30.4759 -8.37846
rradius 127.992
rwrist -58.9872
rhand -5.38174 -44.7713
rfingers 7.12502
rthumb 20.4266 -73.7169
lclavicle -7.06679e-014 -2.38542e-014
lhumerus 24.0467 4.61021 -12.5465
lradius 33.5198
lwrist 38.8055
lhand -20.6464 -19.4039
lfingers 7.12502
lthumb 5.71573 10.4991
rfemur -11.2318 -0.433675 7.49969
rtibia 28.7302
rfoot -23.6867 -27.2972
rtoes -2.28461
lfemur -19.6156 -6.15709 -9.60524
ltibia 11.1856
lfoot 3.00071 25.0028
ltoes 0.0586411
204
root 2.72871 17.209 -2.09734 7.5462 -45.6372 4.95554
lowerback -8.21565 1.06359 -0.853925
upperback -7.14314 1.33355 0.201099
thorax -2.82348 0.652167 0.762728
lowerneck -6.67034 14.3886 10.5735
upperneck 25.1056 19.4891 -3.72102
head 10.5717 9.58464 -0.637727
rclavicle -3.54831e-014 -2.62396e-014
rhumerus 21.3483 -31.2395 -7.42662
rradius 128.08
rwrist -59.0855
rhand -5.47141 -45.1199
rfingers 7.12502
rthumb 20.3404 -74.0747
lclavicle -3.54831e-014 -2.62396e-014
lhumerus 25.7402 5.16715 -12.0372
lradius 33.4185
lwrist 38.5462
lhand -21.025 -20.0371
lfingers 7.12502
lthumb 5.35022 9.87534
rfemur -11.2611 -0.533929 7.77466
rtibia 28.9524
rfoot -23.786 -27.2094
rtoes -2.26853
lfemur -19.5632 -5.90529 -9.4157
ltibia 11.2034
lfoot 3.46813 24.5839
ltoes -1.13914
205
root 2.72077 17.2042 -2.11326 7.61317 -45.5776 4.6889
lowerback -8.2203 1.24255 -0.626213
upperback -6.97445 1.56231 0.00909584
thorax -2.63594 0.75445 0.451893
lowerneck -7.39509 14.1602 11.5569
upperneck 25.5118 19.1437 -4.38517
head 11.0195 9.40796 -0.963481
rclavicle -2.56929e-014 5.56597e-015
rhumerus 20.7831 -31.57 -7.41511
rradius 128.081
rwrist -59.0386
rhand -5.67144 -45.3727
rfingers 7.12502
rthumb 20.1482 -74.3479
lclavicle -2.56929e-014 5.56597e-015
lhumerus 26.2719 5.17982 -12.0336
lradius 33.4277
lwrist 38.4445
lhand -22.1899 -21.0309
lfingers 7.12502
lthumb 4.22536 8.90692
rfemur -11.2486 -0.760065 8.03322
rtibia 29.1228
rfoot -23.6099 -27.1371
rtoes -2.66165
lfemur -19.5292 -5.94246 -9.15035
ltibia 11.3232
lfoot 3.59448 24.5036
ltoes -1.59837
206
root 2.71433 17.1997 -2.13185 7.66611 -45.4155 4.4901
lowerback -8.43065 0.43738 -0.270466
upperback -7.12553 0.473431 0.774134
thorax -2.66908 0.208898 0.981945
lowerneck -5.21681 14.8072 10.1471
upperneck 24.6936 20.47 -4.58306
head 10.2796 9.96037 -0.854914
rclavicle -1.97791e-014 -1.74931e-014
rhumerus 24.1379 -30.5834 -9.78011
rradius 127.864
rwrist -58.945
rhand -5.13907 -45.3338
rfingers 7.12502
rthumb 20.6598 -74.2542
lclavicle -1.97791e-014 -1.74931e-014
lhumerus 23.3776 3.45868 -12.9557
lradius 33.7665
lwrist 38.7618
lhand -23.2285 -21.5031
lfingers 7.12502
lthumb 3.22244 8.45228
rfemur -11.2161 -0.866053 8.2481
rtibia 29.2858
rfoot -23.9004 -26.9557
rtoes -2.09307
lfemur -19.5739 -6.44163 -8.82711
ltibia 11.4482
lfoot 3.47412 24.9038
ltoes -1.26556
207
root 2.7088 17.1978 -2.15521 7.60064 -45.2941 4.49223
lowerback -8.43507 1.16363 -0.159978
upperback -6.7691 1.43514 -0.0863213
thorax -2.28596 0.671975 0.092192
lowerneck -6.69683 14.2215 11.393
upperneck 25.0313 19.3222 -4.5083
head 10.7183 9.49221 -1.02703
rclavicle 2.9271e-014 1.66979e-014
rhumerus 21.51 -31.7653 -8.61381
rradius 127.832
rwrist -59.0088
rhand -4.1934 -45.2189
rfingers 7.12502
rthumb 21.5682 -74.0378
lclavicle 2.9271e-014 1.66979e-014
lhumerus 25.9978 4.85478 -12.2639
lradius 33.5878
lwrist 38.1712
lhand -22.4095 -20.8224
lfingers 7.12502
lthumb 4.01334 9.11959
rfemur -11.2563 -0.904606 8.32233
rtibia 29.4731
rfoot -24.0794 -26.9233
rtoes -1.92923
lfemur -19.5875 -6.6523 -8.70975
ltibia 11.455
lfoot 3.35808 25.0499
ltoes -0.794865
208
root 2.70152 17.1973 -2.17774 7.47348 -45.2063 4.6248
lowerback -8.47981 0.70806 -0.219052
upperback -6.95505 0.83124 0.376286
thorax -2.46271 0.379029 0.564544
lowerneck -7.65883 15.0141 9.32057
upperneck 27.5102 20.2919 -2.30556
head 11.4105 9.90578 0.288435
rclavicle 2.98177e-016 -3.97569e-015
rhumerus 23.4025 -30.9223 -9.78163
rradius 127.839
rwrist -59.0377
rhand -4.14785 -45.0126
rfingers 7.12502
rthumb 21.612 -73.8265
lclavicle 2.98177e-016 -3.97569e-015
lhumerus 24.372 3.78705 -12.478
lradius 33.7862
lwrist 38.2573
lhand -21.2255 -20.1883
lfingers 7.12502
lthumb 5.15667 9.729
rfemur -11.3624 -1.08815 8.28695
rtibia 29.6966
rfoot -23.8188 -27.0115
rtoes -2.73692
lfemur -19.584 -6.90807 -8.66891
ltibia 11.3929
lfoot 3.17374 25.2536
ltoes 0.00408547
209
root 2.69428 17.1933 -2.19694 7.28983 -45.0828 4.83056
lowerback -8.41706 1.04808 -0.433912
upperback -6.89282 1.29538 0.00981057
thorax -2.43388 0.61316 0.334373
lowerneck -8.92784 14.7453 9.32743
upperneck 28.603 19.6474 -1.52561
head 11.9479 9.64353 0.609125
rclavicle -2.96189e-014 9.14409e-015
rhumerus 22.0259 -31.1597 -8.95706
rradius 127.981
rwrist -59.2286
rhand -4.68961 -44.9094
rfingers 7.12502
rthumb 21.0916 -73.7823
lclavicle -2.96189e-014 9.14409e-015
lhumerus 25.5334 3.64874 -12.2811
lradius 33.8224
lwrist 38.5386
lhand -21.4966 -20.6571
lfingers 7.12502
lthumb 4.89481 9.26638
rfemur -11.4351 -1.35913 8.16961
rtibia 29.9483
rfoot -23.992 -26.7449
rtoes -2.3934
lfemur -19.5921 -7.3836 -8.65175
ltibia 11.3461
lfoot 3.02106 25.6411
ltoes 0.698876
